<?xml version="1.0" encoding="UTF-8"?>
<svg id="Layer_1" xmlns="http://www.w3.org/2000/svg" version="1.1" viewBox="0 0 864 617">
  <!-- Generator: Adobe Illustrator 29.7.0, SVG Export Plug-In . SVG Version: 2.1.1 Build 138)  -->
  <defs>
    <style>
      .st0 {
        fill: #3a4734;
        fill-rule: evenodd;
      }

      .st1 {
        fill: #a13a28;
      }
    </style>
  </defs>
  <path class="st0" d="M542.6,363.5c0-1.2.9-2.1,2.1-2.1s2.1.9,2.1,2.1v36c0,.7-.4,1.4-1,1.8l-102.5,64.7c-4.6,2.9-10.4,2.9-14.9,0l-102.5-64.7c-.6-.4-1-1.1-1-1.8v-37.6c0-1.2.9-2.1,2.1-2.1s2.1.9,2.1,2.1v36.5l101.5,64.1c3.2,2,7.2,2,10.4,0l101.5-64.1v-34.9Z"/>
  <path class="st0" d="M329.1,278c0,1.2-.9,2.1-2.1,2.1s-2.1-.9-2.1-2.1v-36.2c0-.8.5-1.6,1.2-1.9l108.8-50.8c.6-.3,1.2-.3,1.8,0l108.8,50.8c.7.3,1.2,1.1,1.2,1.9v37.7c0,1.2-.9,2.1-2.1,2.1s-2.1-.9-2.1-2.1v-36.4l-106.7-49.8-78.5,36.6-28.3,13.2v34.9Z"/>
  <path class="st0" d="M336.4,275.9c0,.8-.6,1.4-1.4,1.4s-1.4-.6-1.4-1.4v-28.9c0-.5.3-1,.8-1.3l100.9-47.4c.4-.2.8-.2,1.2,0l100.9,47.4c.5.2.8.7.8,1.3v30.7c0,.8-.6,1.4-1.4,1.4s-1.4-.6-1.4-1.4v-29.9l-99.5-46.7-99.5,46.7v28Z"/>
  <polygon class="st0" points="416.6 245.9 364 245.9 364 272.2 416.6 268.8 416.6 245.9"/>
  <path class="st0" d="M399,218.9c-.8,0-1.4-.6-1.4-1.4s.6-1.4,1.4-1.4h73.7c.8,0,1.4.6,1.4,1.4s-.6,1.4-1.4,1.4h-73.7Z"/>
  <path class="st0" d="M377.3,228.8c-.8,0-1.4-.6-1.4-1.4s.6-1.4,1.4-1.4h117.9c.8,0,1.4.6,1.4,1.4s-.6,1.4-1.4,1.4h-117.9Z"/>
  <path class="st0" d="M355.6,238.7c-.8,0-1.4-.6-1.4-1.4s.6-1.4,1.4-1.4h160.2c.8,0,1.4.6,1.4,1.4s-.6,1.4-1.4,1.4h-160.2Z"/>
  <path class="st0" d="M335.8,248.7c-.8,0-1.4-.6-1.4-1.4s.6-1.4,1.4-1.4h200.8c.8,0,1.4.6,1.4,1.4s-.6,1.4-1.4,1.4h-200.8Z"/>
  <path class="st0" d="M335.8,258.6c-.8,0-1.4-.6-1.4-1.4s.6-1.4,1.4-1.4h200.8c.8,0,1.4.6,1.4,1.4s-.6,1.4-1.4,1.4h-200.8Z"/>
  <path class="st0" d="M335.8,268.5c-.8,0-1.4-.6-1.4-1.4s.6-1.4,1.4-1.4h200.8c.8,0,1.4.6,1.4,1.4s-.6,1.4-1.4,1.4h-200.8Z"/>
  <path class="st0" d="M418.8,209c-.8,0-1.4-.6-1.4-1.4s.6-1.4,1.4-1.4h34c.8,0,1.4.6,1.4,1.4s-.6,1.4-1.4,1.4h-34Z"/>
  <path class="st0" d="M436.7,394.7c-.4-.7-.1-1.5.5-1.9.7-.4,1.5-.1,1.9.5,0,0,16.1,29.1,19.8,43.5.6,2.3.9,4.3.8,5.8,0,1.3-.5,2.3-1.1,2.9-.5.6-1.4.6-2,0-.6-.5-.6-1.4,0-2,.1-.2.2-.4.3-.7,0-.5,0-1.1,0-1.8-.2-2.4-1.2-5.7-2.6-9.4-5.5-15-17.7-37-17.7-37Z"/>
  <path class="st0" d="M444.6,395.4c-.7-.4-.9-1.2-.5-1.9.4-.7,1.2-.9,1.9-.5,0,0,20.6,11.7,33,21.1,3.8,2.9,6.9,5.6,8.4,7.8.8,1.2,1.2,2.2,1.2,3.1,0,.8-.6,1.4-1.4,1.4-.8,0-1.4-.6-1.4-1.4,0-.6-.6-1.4-1.3-2.3-1.5-1.8-4.1-4-7.2-6.3-12.3-9.3-32.7-20.9-32.7-20.9Z"/>
  <path class="st0" d="M506.3,412c-.2-.1-.5-.3-.7-.5-.9-.5-2.1-1.1-3.6-1.7-13.2-5.4-47.1-14.7-47.1-14.7-.7-.2-1.2-1-1-1.7.2-.7,1-1.2,1.7-1,0,0,34.1,9.4,47.4,14.8,3,1.2,4.9,2.3,5.6,3.1.5.6.6,1.2.5,1.6-.2.8-.9,1.2-1.7,1.1-.5-.1-.9-.5-1.1-1Z"/>
  <path class="st0" d="M523.2,402.2c-.1,0-.6-.3-1-.5-1-.4-2.5-.7-4.3-1.1-13.8-2.9-45.9-5.8-45.9-5.8-.8,0-1.3-.8-1.3-1.5,0-.8.8-1.3,1.5-1.3,0,0,32.4,2.9,46.3,5.8,2.6.5,4.5,1.1,5.6,1.6.8.4,1.3.9,1.5,1.2.4.7,0,1.5-.6,1.9-.6.3-1.4.1-1.8-.4Z"/>
  <path class="st0" d="M535.9,391.7c.8,0,1.4.6,1.4,1.4,0,.8-.6,1.4-1.4,1.4l-100.9.5c-.8,0-1.4-.6-1.4-1.4,0-.8.6-1.4,1.4-1.4l100.9-.5Z"/>
  <path class="st0" d="M432.7,393.3c.4-.7,1.2-.9,1.9-.5.7.4.9,1.2.5,1.9,0,0-12.2,22-17.7,37-1.4,3.7-2.3,7-2.6,9.4,0,.7,0,1.3,0,1.8,0,.3.1.5.3.7.5.6.5,1.4,0,2-.6.5-1.5.5-2,0-.6-.6-1-1.6-1.1-2.9,0-1.5.2-3.4.8-5.8,3.8-14.4,19.8-43.5,19.8-43.5Z"/>
  <path class="st0" d="M425.8,393c.7-.4,1.5-.1,1.9.5.4.7.1,1.5-.5,1.9,0,0-20.4,11.6-32.7,20.9-3.1,2.3-5.6,4.5-7.2,6.3-.8.9-1.3,1.7-1.3,2.3,0,.8-.6,1.4-1.4,1.4s-1.4-.6-1.4-1.4c0-.8.4-1.9,1.2-3.1,1.5-2.1,4.6-4.8,8.4-7.8,12.4-9.4,33-21.1,33-21.1Z"/>
  <path class="st0" d="M365.6,412c-.1.5-.5.9-1.1,1-.8.2-1.5-.3-1.7-1.1-.1-.5,0-1,.5-1.6.6-.7,2.6-1.9,5.6-3.1,13.3-5.4,47.4-14.8,47.4-14.8.7-.2,1.5.2,1.7,1,.2.7-.2,1.5-1,1.7,0,0-33.9,9.3-47.1,14.7-1.5.6-2.8,1.2-3.6,1.7-.3.2-.6.4-.7.5Z"/>
  <path class="st0" d="M348.7,402.2c-.4.6-1.2.8-1.8.4-.7-.4-1-1.2-.6-1.9.2-.4.7-.8,1.5-1.2,1.1-.5,3-1.1,5.6-1.6,13.9-2.9,46.2-5.6,46.2-5.6.8,0,1.5.5,1.5,1.3,0,.8-.5,1.5-1.3,1.5,0,0-32.1,2.7-45.8,5.6-1.8.4-3.2.7-4.3,1.1-.4.1-.9.4-1,.4Z"/>
  <path class="st0" d="M336,394.5c-.8,0-1.4-.6-1.4-1.4,0-.8.6-1.4,1.4-1.4l100.9.5c.8,0,1.4.6,1.4,1.4,0,.8-.6,1.4-1.4,1.4l-100.9-.5Z"/>
  <path class="st0" d="M535.3,360.6c0-.8.6-1.4,1.4-1.4s1.4.6,1.4,1.4v33.7c0,.5-.2.9-.7,1.2l-92.8,59c-5.4,3.4-12.2,3.4-17.6,0l-92.8-59c-.4-.3-.7-.7-.7-1.2v-34.1c0-.8.6-1.4,1.4-1.4s1.4.6,1.4,1.4v33.4l92.2,58.6c4.5,2.8,10.1,2.8,14.6,0l92.2-58.6v-32.9Z"/>
  <path class="st0" d="M435.1,127c.6,0,1.1.2,1.4.6,5.9,10,14.7,22.6,24.9,32.4.4.4.5,1,.1,1.4-.3.4-1,.7-1.6.5-6-1.1-15.7-3-15.7-3,8.5,11.1,17.1,18.1,25.8,24.2.5.3.7.9.4,1.4-.3.5-.9.8-1.6.7-7.3-.8-20-2.2-20-2.2,9.1,10,20.9,20.5,34.1,27.4.6.3.8.9.5,1.4-.2.5-.9.8-1.6.7-14.2-2.1-44.1-20.3-46.8-20.7-2.7.4-32.6,18.5-46.8,20.6-.7,0-1.3-.2-1.6-.7-.2-.5,0-1.1.5-1.4,13.2-6.8,25-17.3,34.1-27.3,0,0-12.7,1.4-20,2.2-.7,0-1.3-.2-1.6-.7-.3-.5-.1-1.1.4-1.4,8.6-6.1,17.2-13.1,25.8-24.2,0,0-9.8,1.8-15.7,3-.6.1-1.3,0-1.6-.5-.3-.4-.3-1,.1-1.4,10.2-9.8,19.1-22.4,24.9-32.4.2-.4.8-.7,1.4-.6Z"/>
  <path class="st0" d="M355.9,157.1c.4,0,.8.2,1,.6,4.3,9.2,10.9,20.9,18.4,30,.3.4.4.9.1,1.3s-.7.6-1.2.5c-4.4-1-11.6-2.8-11.6-2.8,6.3,10.3,10.3,20.8,18.5,23.2,4.3,1.3,9-.4,8.8,1.3-.2,1.5-8.7,4.4-10.2,5.3-3.3,2.1-13.6,6.9-23.4,11.1-9.8,4.2-19.2,7.9-20.9,7.8-2,.4-7.4,1-14-1.7-.5-.2-1-.2-1.2-.6-.2-.5,0-1,.4-1.3,9.8-6.3,18.5-13.7,25.2-22.9,0,0-9.4,1.3-14.8,2-.5,0-1-.2-1.2-.6-.2-.4,0-1,.3-1.3,6.4-5.6,12.7-12.1,19-22.4,0,0-7.2,1.7-11.6,2.8-.5.1-1,0-1.2-.5-.2-.4-.2-.9.1-1.3,7.5-9,14.1-20.7,18.4-30,.2-.4.6-.6,1-.6Z"/>
  <path class="st0" d="M515.8,157.1c-.4,0-.8.2-1,.6-4.3,9.2-10.9,20.9-18.4,30-.3.4-.4.9-.1,1.3s.7.6,1.2.5c4.4-1,11.6-2.8,11.6-2.8-6.3,10.3-10.3,20.8-18.5,23.2-4.3,1.3-9-.4-8.8,1.3.2,1.5,8.7,4.4,10.2,5.3,3.3,2.1,13.6,6.9,23.4,11.1,9.8,4.2,19.2,7.9,20.9,7.8,2,.4,7.4,1,14-1.7.5-.2,1-.2,1.2-.6.2-.5,0-1-.4-1.3-9.8-6.3-18.5-13.7-25.2-22.9,0,0,9.4,1.3,14.8,2,.5,0,1-.2,1.2-.6.2-.4,0-1-.3-1.3-6.4-5.6-12.7-12.1-19-22.4,0,0,7.2,1.7,11.6,2.8.5.1,1,0,1.2-.5.2-.4.2-.9-.1-1.3-7.5-9-14.1-20.7-18.4-30-.2-.4-.6-.6-1-.6Z"/>
  <path class="st0" d="M296.8,289.9v77.5c11.5-3.8,58.4-17.3,138.4-17.3s127.1,13.5,138.6,17.2v-77.5c-9.3-2.8-63-17.9-138.6-17.9s-129.2,15.2-138.5,18ZM294.1,286.4s57.1-18.6,141.2-18.6,141.3,18.5,141.3,18.5c.9.3,1.4,1.1,1.4,2v81.9c0,.7-.3,1.3-.9,1.7-.6.4-1.3.5-1.9.2,0,0-47.9-17.9-140-17.9s-139.7,18-139.7,18c-.6.2-1.3.2-1.9-.2-.6-.4-.9-1-.9-1.7v-81.9c0-.9.6-1.7,1.4-2Z"/>
  <path class="st0" d="M294.3,371l23.8,10.8v-17.4s-24.3,6.9-23.8,6.7Z"/>
  <path class="st0" d="M298.9,371.4c6.2,2.8,17.7,8,17.7,8v-13c-3.9,1.1-12.5,3.5-17.7,5ZM294.1,369.5c0,0,.2,0,.4-.1,3.6-1,23.3-6.5,23.3-6.5.5-.1,1,0,1.4.3.4.3.6.8.6,1.2v17.4c0,.5-.3,1-.7,1.3-.4.3-1,.3-1.5.1l-23.6-10.7c-.5-.1-.7-.4-.8-.5-.4-.4-.5-1-.2-1.6,0-.1.2-.5.8-.8.1,0,.3-.1.5-.1Z"/>
  <path class="st0" d="M576.3,370.6l-23.8,11.2v-18.3s24.3,7.3,23.8,7.1Z"/>
  <path class="st0" d="M571.9,371c-5.2-1.5-14-4.2-17.9-5.3v13.8l17.9-8.4ZM576.6,369.1c.2,0,.3,0,.5.2.6.3.7.7.7.8.2.6.1,1.1-.2,1.5,0,0-.3.4-.8.5l-23.6,11.1c-.5.2-1,.2-1.5,0s-.7-.8-.7-1.3v-18.3c0-.5.2-1,.6-1.2.4-.3.9-.4,1.4-.2,0,0,19.6,5.9,23.3,6.9.1,0,.3,0,.4.1Z"/>
  <path class="st0" d="M318.1,313.8c.7-.1,1.4-.3,2.1-.5.7-.2,1.3-.4,2-.7,1.7-1.2,3-2.7,3.9-4.4,1-1.8,1.5-3.8,1.5-5.9,0-2.1,0-4.6-2-6.1-1.4-1.1-3.4-1.3-5.2-.9-.8.2-1.6.4-2.3.6-.6.2-1.2.4-1.8.6,0,5.9,0,11.8,0,17.7.7-.1,1.3-.3,2-.4ZM320.9,336.9c2.6-.5,4.7-1.9,6-3.7,1.6-2.2,2.2-4.9,2.2-7.5,0-1.5-.1-3-.7-4.4-.4-.9-1-1.9-2-2.5-.9-.6-2-.8-3.1-.9-1.3,0-2.6.1-3.9.4-1.1.2-2.2.4-3.2.7,0,6.1,0,12.2,0,18.3.6,0,1.2,0,1.8,0,1,0,1.9-.2,2.8-.4ZM302.5,345.1c0-.8,0-1.7,0-2.5.8-.6,1.6-1.2,2.5-1.8.8-.5,1.6-.9,2.5-1.2,0-13.4-.2-27.4-.2-40.8-.9,0-1.7,0-2.6-.1-.8-.1-1.7-.3-2.5-.5,0-.8,0-1.7,0-2.5,3.3-.8,6.6-1.7,9.9-2.5,1.7-.4,3-.8,4.4-1.2,1.6-.4,3.2-.8,4.8-1.2,1.9-.4,3.8-.7,5.7-.8,1.7,0,3.4.1,4.9.7,1.5.6,2.7,1.6,3.4,2.8,1.1,1.7,1.3,3.7,1.3,5.7,0,1.5-.2,3-.7,4.4-.5,1.4-1.1,2.7-2,3.9-.8,1.1-1.8,2.2-2.9,3.1-1.1.9-2.3,1.6-3.6,2.2,0,0,0,.2,0,.3,1.3,0,2.7,0,3.9.4,1.4.3,2.6.9,3.6,1.7,1.2,1,2,2.2,2.6,3.4.8,1.7,1,3.5,1,5.3,0,2.3-.4,4.7-1.5,6.9-.9,1.9-2.2,3.6-3.9,5.1-1.6,1.4-3.5,2.5-5.6,3.4-2.1.9-4.3,1.5-6.6,1.9-.9.2-1.9.4-2.8.6-1,.2-2,.4-3,.7-1,.2-1.9.4-2.9.6-.8.2-1.6.4-2.4.5-2.4.5-4.8,1-7.2,1.5Z"/>
  <path class="st0" d="M352.1,310.4c0,2.9.1,5.9.6,8.8.3,2.2.9,4.5,1.9,6.6.7,1.5,1.8,2.9,3.3,4,1.4.9,3.2,1.2,4.9,1,1.8-.2,3.3-1,4.5-2.1,1.4-1.4,2.4-3,3-4.7.9-2.3,1.4-4.7,1.7-7.1.4-3,.6-6,.6-9,0-3-.1-5.9-.5-8.9-.3-2.3-.8-4.6-1.8-6.7-.7-1.5-1.7-3-3.3-4-1.4-.9-3.2-1.1-5-.9-1.9.3-3.5,1.1-4.7,2.2-1.5,1.4-2.4,3.1-3.1,4.8-.9,2.3-1.4,4.7-1.6,7.1-.3,3-.5,6-.5,8.9ZM341.7,312c0-3.7.4-7.4,1.4-11,.8-3.1,2.1-6.1,4-8.9,1.6-2.4,3.8-4.5,6.5-6.2,2.6-1.6,5.7-2.6,8.9-3.1,3-.4,6.1-.3,8.9.7,2.7.9,4.9,2.6,6.4,4.5,2,2.4,3.1,5.2,3.9,8,1,3.5,1.3,7.2,1.2,10.8,0,3.7-.5,7.4-1.4,11-.8,3-2.1,6-4,8.7-1.6,2.3-3.8,4.3-6.5,5.8-2.6,1.5-5.7,2.4-8.9,2.8-3,.3-6.1.2-8.8-.7-2.6-.9-4.8-2.4-6.4-4.3-2-2.3-3.2-5-3.9-7.7-1-3.4-1.3-7-1.3-10.5Z"/>
  <path class="st0" d="M386.6,280.1c6.7-.7,13.4-1.1,20.1-1.5,0,.9,0,1.7,0,2.6-.9.6-1.8,1-2.9,1.4-1,.4-2,.7-3,.9-.1,14.1-.3,28.1-.4,42.2,3.9-.2,7.9-.4,11.8-.5,1.5-4.4,2.9-8.8,4.2-13.2.8,0,1.7,0,2.5,0,.2,1.3.3,2.7.4,4,.1,1.6.2,3.2.3,4.8,0,1.6.1,3.2.1,4.7,0,1.3,0,2.6,0,3.9-11.2.3-22.4.9-33.6,1.7,0-.9,0-1.7,0-2.6.8-.6,1.7-1.1,2.7-1.5.7-.3,1.5-.7,2.4-.9.1-14,.3-28,.4-42-1.8-.2-3.6-.7-5-1.6,0-.9,0-1.6,0-2.5Z"/>
  <path class="st0" d="M441.1,329.2c-6.2,0-12.4,0-18.6.2,0-.9,0-1.7,0-2.6.8-.5,1.6-.9,2.4-1.2.8-.4,1.7-.7,2.6-.9.1-14,.3-28,.4-42.1-1-.2-1.9-.4-2.8-.8-.8-.3-1.5-.7-2.2-1.1,0-.9,0-1.7,0-2.6,6.2-.1,12.4-.1,18.5,0,0,.8,0,1.7,0,2.5-.6.5-1.3.9-2.1,1.2-.7.3-1.5.6-2.3.7,0,6-.1,11.9-.2,17.9,5.4,0,10.8.1,16.2.3,0-5.9.1-11.9.2-17.8-.9-.2-1.7-.5-2.4-.9-.7-.4-1.3-.8-1.9-1.2,0-.8,0-1.7,0-2.5,6.2.2,12.4.5,18.5.9,0,.8,0,1.7,0,2.5-.7.5-1.5.8-2.4,1.1-.9.3-1.7.5-2.6.6,0,13.9-.3,27.8-.4,41.7,1,.2,1.9.5,2.7.9.8.4,1.6.8,2.3,1.3,0,.8,0,1.7,0,2.5-6.2-.3-12.4-.5-18.6-.6,0-.8,0-1.7,0-2.5.6-.4,1.3-.8,2-1.1.7-.3,1.5-.6,2.3-.8,0-6.4.1-12.7.2-19.1-5.4-.2-10.8-.3-16.2-.3,0,6.4-.1,12.8-.2,19.2.8.2,1.6.4,2.3.8.7.4,1.4.8,2.1,1.2,0,.8,0,1.7,0,2.5Z"/>
  <path class="st0" d="M470.5,279.6c6.3.5,12.6,1.1,18.8,1.8,0,.8,0,1.6,0,2.5-1.4.8-3,1.3-4.7,1.5,0,9.4-.2,18.9-.2,28.3,0,2,0,4.1.6,6.1.4,1.4.9,2.8,1.9,4,.8.9,1.8,1.8,3.1,2.3,1.3.5,2.7.8,4.1,1,1.2.1,2.5,0,3.7-.3,1.2-.3,2.2-1,3-1.8,1-1.1,1.6-2.4,2-3.7.6-2,.7-4,.7-6,0-9.1.2-18.2.2-27.3-1-.4-2-.8-2.9-1.3-.9-.5-1.7-1-2.5-1.6,0-.8,0-1.7,0-2.5,5.1.6,10,1.1,15.2,2.2,0,.8,0,1.7,0,2.5-.7.4-1.6.8-2.5,1-.9.2-1.7.4-2.6.5,0,9.1-.1,18.1-.2,27.2,0,4.5-.4,9.6-4.2,13.3-2.9,2.7-7.4,3.6-11.7,3.2-4.8-.4-9.6-1.8-12.7-4.8-4-3.9-4.4-9.3-4.4-14,0-9.6.2-19.3.3-28.9-.9-.2-1.8-.5-2.6-.9-.9-.4-1.7-.9-2.4-1.4,0-.8,0-1.7,0-2.5Z"/>
  <path class="st0" d="M535.7,337.4c-6.4-.9-12.8-1.7-19.2-2.5,0-.8,0-1.6,0-2.4,1.5-.7,3.2-1.2,5-1.3,0-13.3.2-27.5.2-40.8-.9-.3-1.8-.7-2.6-1.2-.8-.5-1.7-1-2.4-1.6,0-.8,0-1.8,0-2.6,6.5.9,12.8,2.2,19.1,3.5,0,.8,0,1.7,0,2.5-.8.3-1.6.6-2.4.7-.8.1-1.7.2-2.5.2,0,13.2-.1,27.2-.2,40.4.9.3,1.7.7,2.6,1.1.9.4,1.7.9,2.4,1.5,0,.8,0,1.6,0,2.4Z"/>
  <path class="st0" d="M546,334.6c.5.7,1.2,1.2,1.9,1.7.9.6,2.1,1,3.3,1.2,1.9.3,4.1.2,5.6-.9,1.8-1.2,2.3-3.2,2.3-5.1,0-1.6-.5-3.3-1.4-4.7-1-1.5-2.3-2.8-3.7-4.1-1.5-1.4-3.1-2.7-4.7-4-1.7-1.4-3.3-2.9-4.7-4.5-1.5-1.7-2.7-3.7-3.6-5.7-1.1-2.3-1.4-4.8-1.4-7.3,0-2,.2-4,1.1-5.8.6-1.3,1.6-2.6,3-3.4,1.3-.8,3-1.2,4.6-1.3,1.9,0,3.9.2,5.7.6,2.4.6,4.7,1.4,7,2.3,2.1.9,4,2,5.8,3.3,0,1-.1,2-.2,3-.1,1.1-.2,2.3-.4,3.4-.2,1.1-.3,2.1-.5,3.2-.2.8-.3,1.7-.5,2.5-.8-.2-1.7-.4-2.5-.6-.9-3.4-1.9-6.8-2.8-10.2-.6-.5-1.4-.9-2.2-1.3-.9-.5-1.9-.8-3-1.1-1.5-.4-3.1-.3-4.4.4-1.5.9-1.8,2.6-1.8,4,0,1.7.5,3.4,1.5,4.9,1,1.6,2.3,3,3.7,4.3,1.5,1.5,3.2,2.9,4.8,4.2,1.8,1.4,3.4,3,4.8,4.7,1.5,1.7,2.7,3.6,3.7,5.5,1.1,2.2,1.5,4.5,1.5,6.8,0,3.5-.8,7.4-4.2,9.7-3.4,2.3-8.2,2-12.2,1.3-1.4-.2-2.7-.6-4-.9-1.3-.4-2.6-.8-3.8-1.4-1.1-.5-2.2-1-3.2-1.5-.8-.4-1.5-.9-2.1-1.5,0-1.1.2-2.2.3-3.3.2-1.2.3-2.4.5-3.7.2-1.2.4-2.4.6-3.5.2-1,.4-2,.6-3,.8.1,1.7.3,2.5.4.8,3.6,1.6,7.3,2.5,10.9Z"/>
  <polygon class="st1" points="383.8 379.3 383.1 378.8 384.6 379.2 384.6 380.5 379.5 380.5 379.5 379.2 380.9 378.8 380.8 379.2 377.8 374.5 378.5 375 376.2 375 376.6 374.5 376.6 379.2 376.2 378.7 377.8 379.2 377.8 380.5 372.7 380.5 372.7 379.2 374.3 378.8 374 379.2 374 369.3 374.3 369.8 372.7 369.4 372.7 368.1 377.8 368 377.8 369.2 376.2 369.8 376.6 369.2 376.6 373.6 376.2 373.2 378.7 373.2 378 373.6 380.5 369.3 380.7 369.7 379.2 369.4 379.2 368.1 384 368 384 369.3 382.4 369.8 383 369.3 379.9 374.3 379.9 373.7 383.8 379.3"/>
  <polygon class="st1" points="403.4 368.1 408.1 368 408.1 369.3 406.5 369.7 407.1 369.1 403.9 380.5 401.5 380.5 398.8 371.1 399.3 371.1 396.5 380.5 394.1 380.5 391.2 369.3 391.4 369.7 390.1 369.4 390.1 368.1 395 368 395 369.3 393.4 369.8 393.7 369.3 395.8 378.2 395.2 378.2 398 368.1 400.4 368 403.1 378.2 402.6 378.2 404.8 369.3 405 369.8 403.4 369.4 403.4 368.1"/>
  <polygon class="st1" points="421.8 377.2 423.3 377.2 423.3 380.5 414 380.5 414 379.2 415.7 378.7 415.3 379.2 415.3 369.3 415.7 369.8 414 369.4 414 368.1 417.8 368 423.1 368 423.1 371.2 421.6 371.2 421.2 369.5 421.7 369.8 417.5 369.8 417.9 369.4 417.9 373.6 417.5 373.2 421.7 373.2 421.7 375 417.5 375 417.9 374.6 417.9 379.1 417.5 378.7 421.9 378.7 421.4 379.1 421.8 377.2"/>
  <polygon class="st1" points="441.4 379.3 440.7 378.8 442.2 379.2 442.2 380.5 437.2 380.5 437.2 379.2 438.5 378.8 438.5 379.2 435.4 374.5 436.1 375 433.8 375 434.2 374.5 434.2 379.2 433.9 378.7 435.4 379.2 435.4 380.5 430.4 380.5 430.4 379.2 431.9 378.8 431.7 379.2 431.7 369.3 431.9 369.8 430.4 369.4 430.4 368.1 435.4 368 435.4 369.2 433.9 369.8 434.2 369.2 434.2 373.6 433.8 373.2 436.3 373.2 435.6 373.6 438.2 369.3 438.4 369.7 436.9 369.4 436.9 368.1 441.7 368 441.7 369.3 440.1 369.8 440.6 369.3 437.6 374.3 437.6 373.7 441.4 379.3"/>
  <polygon class="st1" points="455.9 377.2 457.5 377.2 457.4 380.5 448.2 380.5 448.2 379.2 449.8 378.7 449.5 379.2 449.5 369.3 449.8 369.8 448.2 369.4 448.2 368.1 452 368 457.2 368 457.2 371.2 455.7 371.2 455.4 369.5 455.8 369.8 451.6 369.8 452 369.4 452 373.6 451.6 373.2 455.8 373.2 455.8 375 451.6 375 452 374.6 452 379.1 451.6 378.7 456.1 378.7 455.6 379.1 455.9 377.2"/>
  <path class="st1" d="M468.3,374.3l-.4-.6h1.5c.8,0,1.5-.2,1.9-.5.4-.3.6-.9.6-1.5s-.2-1-.5-1.3c-.3-.3-.8-.5-1.5-.5h-1.9l.4-.4v4.9ZM464.5,380.5v-1.3l1.6-.5-.3.5v-9.9l.4.5-1.8-.5v-1.3h4c0,0,1.7,0,1.7,0,1.4,0,2.5.3,3.2.9.7.6,1.1,1.4,1.1,2.6s-.3,1.8-.9,2.5c-.6.7-1.6,1-2.9,1.2v-.3c.5,0,.9,0,1.2.2.3.1.5.3.7.5.2.2.4.5.5.8l1.4,2.7-.7-.4,1.6.5v1.3h-2.9l-1.6-3.4c-.2-.4-.4-.8-.6-1-.2-.2-.3-.4-.6-.5-.2,0-.6-.1-1-.1h-.9l.4-.4v4.2l-.3-.5,1.8.5v1.3h-5.3Z"/>
  <polygon class="st1" points="487 369.3 485.4 369.8 485.7 369.4 485.7 379.1 485.4 378.8 487 379.2 487 380.5 481.8 380.5 481.8 379.2 483.4 378.8 483.2 379.1 483.2 369.4 483.5 369.8 481.8 369.4 481.8 368.1 487 368 487 369.3"/>
  <path class="st1" d="M493.5,368.1h5.3c0,0,0,1.2,0,1.2l-1.6.6.3-.5v7.2c0,.7,0,1.4-.2,2-.1.6-.3,1.1-.6,1.5-.3.4-.7.7-1.1,1-.5.2-1.1.3-1.8.3s-.4,0-.6,0c-.2,0-.5,0-.7,0l.2-1.8c.1,0,.2,0,.3,0,0,0,.2,0,.3,0,.6,0,1.1-.2,1.3-.6.3-.4.4-1,.4-1.8v-7.7l.3.5-1.7-.4v-1.3Z"/>
</svg>